<svg width="90" height="90" viewBox="0 0 90 90" fill="none" xmlns="http://www.w3.org/2000/svg">
<path fill-rule="evenodd" clip-rule="evenodd" d="M7.2207 19.0707L73.4324 0.22176C73.8626 0.0992891 74.3107 0.348737 74.4331 0.778917C74.5556 1.2091 74.3061 1.65711 73.8759 1.77958L9.2221 20.185L23.4872 70.2948L65.4213 58.3572L56.8474 28.2394C56.725 27.8092 56.9745 27.3612 57.4047 27.2387C57.8349 27.1162 58.2829 27.3657 58.4054 27.7958L67.4227 59.4715L22.3727 72.2962L7.2207 19.0707Z" fill="white"/>
<path fill-rule="evenodd" clip-rule="evenodd" d="M66.4064 9.86173L84.8106 74.511C84.9333 74.942 85.3815 75.1922 85.8117 75.0697C86.2418 74.9473 86.4911 74.4986 86.3684 74.0675L67.5199 7.8573L14.2944 23.0093L26.3663 65.4151L58.042 56.3978C58.4722 56.2753 58.7214 55.8266 58.5987 55.3956C58.476 54.9645 58.0278 54.7144 57.5976 54.8368L27.4798 63.4107L16.2966 24.1268L66.4064 9.86173Z" fill="white"/>
<path fill-rule="evenodd" clip-rule="evenodd" d="M75.541 66.3888L15.4935 83.483C15.06 83.6064 14.8078 84.0552 14.9303 84.4854C15.0528 84.9155 15.5035 85.1642 15.937 85.0408L77.5543 67.4998L62.4023 14.2743L23.0247 25.4842L32.042 57.1598C32.1645 57.59 32.6152 57.8387 33.0487 57.7153C33.4822 57.5919 33.7344 57.1431 33.6119 56.7129L25.0381 26.5951L61.2759 16.2791L75.541 66.3888Z" fill="white"/>
</svg>
